<svg width="40" height="40" viewBox="0 0 40 40" fill="none" xmlns="http://www.w3.org/2000/svg">
<mask id="mask0_3448_5870" style="mask-type:alpha" maskUnits="userSpaceOnUse" x="0" y="0" width="40" height="40">
<rect width="40" height="40" fill="#D9D9D9"/>
</mask>
<g mask="url(#mask0_3448_5870)">
<path d="M32.6667 35.0026L22.0833 24.4193L24.4167 22.0859L35 32.6693L32.6667 35.0026ZM9.91667 33.8359C8.25 32.1693 7.01389 30.2943 6.20833 28.2109C5.40278 26.1276 5 24.0026 5 21.8359C5 19.6693 5.40278 17.5582 6.20833 15.5026C7.01389 13.447 8.25 11.5859 9.91667 9.91927C11.5833 8.2526 13.4514 7.00955 15.5208 6.1901C17.5903 5.37066 19.7083 4.96094 21.875 4.96094C24.0417 4.96094 26.1597 5.37066 28.2292 6.1901C30.2986 7.00955 32.1667 8.2526 33.8333 9.91927L9.91667 33.8359ZM10.25 28.7526L12.5 26.5026C12.0556 25.9193 11.6319 25.322 11.2292 24.7109C10.8264 24.0998 10.4583 23.4887 10.125 22.8776C9.79167 22.2665 9.5 21.6554 9.25 21.0443C9 20.4332 8.77778 19.8359 8.58333 19.2526C8.27778 20.8915 8.25694 22.5304 8.52083 24.1693C8.78472 25.8082 9.36111 27.3359 10.25 28.7526ZM14.9167 24.1693L24.1667 14.8359C22.9722 13.9193 21.7708 13.1762 20.5625 12.6068C19.3542 12.0373 18.2222 11.6484 17.1667 11.4401C16.1111 11.2318 15.1597 11.197 14.3125 11.3359C13.4653 11.4748 12.8056 11.7804 12.3333 12.2526C11.8611 12.7526 11.5556 13.4262 11.4167 14.2734C11.2778 15.1207 11.3125 16.079 11.5208 17.1484C11.7292 18.2179 12.1181 19.3498 12.6875 20.5443C13.2569 21.7387 14 22.947 14.9167 24.1693ZM26.5 12.5026L28.8333 10.2526C27.3611 9.36372 25.8056 8.78038 24.1667 8.5026C22.5278 8.22483 20.8889 8.2526 19.25 8.58594C19.8611 8.78038 20.4722 9.0026 21.0833 9.2526C21.6944 9.5026 22.3056 9.78733 22.9167 10.1068C23.5278 10.4262 24.1319 10.7873 24.7292 11.1901C25.3264 11.5929 25.9167 12.0304 26.5 12.5026Z" fill="white"/>
</g>
</svg>
